# xmcd
#
# Track frame offsets:
#	150
#	25637
#	39166
#	51553
#	64163
#	78750
#	92597
#	105583
#	121122
#	134788
#	160260
#	176671
#	192213
#	209075
#	221875
#	233056
#	244810
#	263062
#	279284
#	290998
#	304465
#
# Disc length: 4213 seconds
#
# Revision: 0
# Processed by: cddbd v1.4PL0 Copyright (c) Steve Scherf et al.
# Submitted via: EasyCDDAExtractor 4.6.9.1
#
DISCID=3a107315
DTITLE=Varios - La musica de México [CD 1)
DYEAR=2002
DGENRE=Country
TTITLE0=México Lindo y Querido (Maria Vidal)
TTITLE1=La Negra (Mariachi Juvenil America)
TTITLE2=El Sinaloense (Mariachi Arriba Juárez)
TTITLE3=Mi Ciudad (Maria de Lourdes)
TTITLE4=Corrido de Monterrey (Mariachi Arriba Juárez)
TTITLE5=Aunque lo Quieran o No (Jorge Negrete)
TTITLE6=Yo soy Mexicano (Jorge Negrete)
TTITLE7=Cocula (Jorge Negrete)
TTITLE8=Pelea de Gallos (Mariachi Arriba Juárez)
TTITLE9=Popurri Huasteco (Mariachi Arriba Juárez)
TTITLE10=Chapala (Maria de Lourdes)
TTITLE11=Tequila con Limón (Jorge Negrete)
TTITLE12=¡Ay! Jalisco no te Rajes (Jorge Negrete)
TTITLE13=La Marcha de Zacatecas (Mariachi Arriba Juárez)
TTITLE14=Fina Estampa (Maria de Lourdes)
TTITLE15=La Bikina (Mariachi Arriba Juárez)
TTITLE16=La Bamba (Mariachi Arriba Juárez)
TTITLE17=L a Cucaracha (Mariachi Arriba Juárez)
TTITLE18=Jarabe Tapatio (Mariachi Arriba Juárez)
TTITLE19=El Mariachi Loco (Mariachi Arriba Juárez)
TTITLE20=Las Mañanitas (Mariachi Arriba Juárez)
EXTD=
EXTT0=
EXTT1=
EXTT2=
EXTT3=
EXTT4=
EXTT5=
EXTT6=
EXTT7=
EXTT8=
EXTT9=
EXTT10=
EXTT11=
EXTT12=
EXTT13=
EXTT14=
EXTT15=
EXTT16=
EXTT17=
EXTT18=
EXTT19=
EXTT20=
PLAYORDER=
